<svg width="120" height="125" viewBox="0 0 120 125" fill="none" xmlns="http://www.w3.org/2000/svg">
<g clip-path="url(#clip0_159_246)">
<g clip-path="url(#clip1_159_246)">
<g clip-path="url(#clip2_159_246)">
<path opacity="0.4" d="M115.025 71.8189V123.33H71.7163V71.8189C71.7163 52.0764 75.6915 36.0183 83.6418 23.6445C91.7317 11.2707 103.518 3.83252 119 1.32996V22.6018C104.913 26.9118 97.8688 43.3175 97.8688 71.8189H115.025ZM44.3085 71.8189V123.33H1V71.8189C1 52.0764 4.97518 36.0183 12.9255 23.6445C21.0154 11.2707 32.8014 3.83252 48.2837 1.32996V22.6018C34.1962 26.9118 27.1525 43.3175 27.1525 71.8189H44.3085Z" stroke="#878787"/>
</g>
</g>
</g>
<defs>
<clipPath id="clip0_159_246">
<rect width="120" height="124" fill="white" transform="translate(0 0.329956)"/>
</clipPath>
<clipPath id="clip1_159_246">
<rect width="120" height="124" fill="white" transform="translate(0 0.329956)"/>
</clipPath>
<clipPath id="clip2_159_246">
<rect width="120" height="124" fill="white" transform="translate(0 0.329956)"/>
</clipPath>
</defs>
</svg>
