<svg width="38" height="38" viewBox="0 0 38 38" fill="none" xmlns="http://www.w3.org/2000/svg">
<path d="M14.5214 8.86012C15.4469 6.15178 19.1891 6.06976 20.2863 8.61405L20.3792 8.86166L21.6281 12.514C21.9143 13.3517 22.3769 14.1182 22.9845 14.7618C23.5921 15.4055 24.3307 15.9114 25.1505 16.2454L25.4863 16.3707L29.1387 17.6181C31.847 18.5436 31.9291 22.2857 29.3863 23.383L29.1387 23.4758L25.4863 24.7248C24.6484 25.0108 23.8816 25.4732 23.2377 26.0809C22.5937 26.6885 22.0876 27.4272 21.7535 28.2471L21.6281 28.5814L20.3807 32.2354C19.4552 34.9437 15.7131 35.0257 14.6174 32.483L14.5214 32.2354L13.2741 28.583C12.988 27.7451 12.5256 26.9783 11.9179 26.3343C11.3103 25.6904 10.5716 25.1842 9.75167 24.8501L9.41739 24.7248L5.76501 23.4774C3.05512 22.5519 2.9731 18.8098 5.51739 17.714L5.76501 17.6181L9.41739 16.3707C10.255 16.0845 11.0215 15.622 11.6652 15.0143C12.3089 14.4067 12.8147 13.6681 13.1487 12.8483L13.2741 12.514L14.5214 8.86012ZM17.4511 9.85988L16.2037 13.5123C15.7679 14.7895 15.0589 15.9564 14.1261 16.9317C13.1933 17.907 12.0591 18.6673 10.8025 19.1595L10.4156 19.3004L6.76322 20.5477L10.4156 21.7951C11.6929 22.2309 12.8598 22.9399 13.8351 23.8727C14.8104 24.8055 15.5706 25.9397 16.0629 27.1963L16.2037 27.5832L17.4511 31.2356L18.6985 27.5832C19.1343 26.306 19.8433 25.1391 20.7761 24.1638C21.7089 23.1885 22.8431 22.4282 24.0997 21.936L24.4866 21.7967L28.1389 20.5477L24.4866 19.3004C23.2093 18.8645 22.0424 18.1555 21.0671 17.2227C20.0918 16.2899 19.3316 15.1557 18.8393 13.8992L18.7 13.5123L17.4511 9.85988ZM29.832 3.52393C30.1216 3.52393 30.4053 3.60514 30.651 3.75835C30.8966 3.91155 31.0944 4.1306 31.2218 4.39059L31.2961 4.57166L31.8377 6.15952L33.4272 6.70119C33.7173 6.79976 33.9717 6.98226 34.158 7.22554C34.3443 7.46883 34.4542 7.76195 34.4738 8.06777C34.4933 8.37358 34.4217 8.67832 34.2678 8.94336C34.114 9.2084 33.885 9.42181 33.6098 9.55655L33.4272 9.63083L31.8393 10.1725L31.2976 11.7619C31.1989 12.052 31.0162 12.3062 30.7729 12.4924C30.5295 12.6785 30.2363 12.7883 29.9305 12.8077C29.6247 12.8271 29.32 12.7552 29.0551 12.6013C28.7902 12.4474 28.5769 12.2182 28.4423 11.943L28.368 11.7619L27.8263 10.174L26.2369 9.63238C25.9468 9.5338 25.6924 9.35131 25.5061 9.10802C25.3198 8.86474 25.2099 8.57161 25.1903 8.2658C25.1707 7.95998 25.2424 7.65525 25.3962 7.39021C25.55 7.12517 25.7791 6.91176 26.0543 6.77702L26.2369 6.70274L27.8248 6.16107L28.3664 4.57166C28.4708 4.26589 28.6682 4.00045 28.9311 3.81255C29.1939 3.62466 29.5089 3.52373 29.832 3.52393Z" fill="#0068B4"/>
</svg>
