<svg width="42" height="42" viewBox="0 0 42 42" fill="none" xmlns="http://www.w3.org/2000/svg">
<path d="M21.441 32.3854C22.5486 32.3097 23.6469 32.1328 24.7222 31.8569C26.0504 32.2561 27.4523 32.3465 28.8207 32.1211C28.8754 32.1145 28.9303 32.1104 28.9852 32.1089C29.4735 32.1089 30.114 32.3889 31.0485 32.9786V32.0091C31.0489 31.8402 31.0946 31.6745 31.1807 31.5293C31.2669 31.384 31.3905 31.2645 31.5385 31.1831C31.9457 30.9533 32.3219 30.6949 32.6672 30.4079C34.0287 29.2704 34.797 27.7514 34.797 26.1449C34.797 25.6146 34.713 25.0861 34.5467 24.5821C34.9584 23.8263 35.2892 23.0291 35.5338 22.2039C36.3213 23.3676 36.7447 24.7414 36.75 26.1449C36.75 28.3289 35.721 30.3659 33.9377 31.8551C33.6391 32.1036 33.327 32.3323 33.0015 32.5411V34.8126C33.0015 35.5931 32.088 36.0429 31.444 35.5774C30.8338 35.1284 30.2031 34.708 29.554 34.3174C29.3665 34.2093 29.1724 34.1128 28.973 34.0286C28.4313 34.1088 27.8844 34.1492 27.3368 34.1494C25.1143 34.1494 23.0597 33.4896 21.441 32.3854ZM9.67925 27.8441C6.87225 25.4939 5.25 22.2896 5.25 18.8561C5.25 11.8421 11.956 6.2334 20.1442 6.2334C28.3342 6.2334 35.042 11.8404 35.042 18.8561C35.042 25.8719 28.3342 31.4771 20.1442 31.4771C19.2331 31.4781 18.3232 31.4079 17.423 31.2671C17.038 31.3564 15.4945 32.2611 13.272 33.8624C12.467 34.4434 11.326 33.8834 11.326 32.9051V29.0324C10.7496 28.6761 10.1998 28.2784 9.681 27.8424M17.4773 28.8784C17.5449 28.8784 17.6132 28.8836 17.682 28.8941C18.487 29.0271 19.3077 29.0942 20.1442 29.0954C27.062 29.0954 32.5973 24.4666 32.5973 18.8544C32.5973 13.2439 27.062 8.6169 20.146 8.6169C13.23 8.6169 7.69125 13.2439 7.69125 18.8544C7.69125 21.5669 8.98625 24.1219 11.2717 26.0346C11.8481 26.5153 12.4758 26.947 13.1548 27.3296C13.3389 27.4319 13.4927 27.5812 13.6003 27.7622C13.7079 27.9433 13.7655 28.1497 13.7673 28.3604V30.5934C15.526 29.4296 16.6828 28.8784 17.4773 28.8784Z" fill="white"/>
<path d="M14.1084 21C14.6305 21 15.1313 20.7926 15.5005 20.4234C15.8697 20.0542 16.0771 19.5534 16.0771 19.0312C16.0771 18.5091 15.8697 18.0083 15.5005 17.6391C15.1313 17.2699 14.6305 17.0625 14.1084 17.0625C13.5863 17.0625 13.0855 17.2699 12.7163 17.6391C12.3471 18.0083 12.1396 18.5091 12.1396 19.0312C12.1396 19.5534 12.3471 20.0542 12.7163 20.4234C13.0855 20.7926 13.5863 21 14.1084 21Z" fill="white"/>
<path d="M20.5078 21C21.03 21 21.5307 20.7926 21.8999 20.4234C22.2691 20.0542 22.4766 19.5534 22.4766 19.0312C22.4766 18.5091 22.2691 18.0083 21.8999 17.6391C21.5307 17.2699 21.03 17.0625 20.5078 17.0625C19.9857 17.0625 19.4849 17.2699 19.1157 17.6391C18.7465 18.0083 18.5391 18.5091 18.5391 19.0312C18.5391 19.5534 18.7465 20.0542 19.1157 20.4234C19.4849 20.7926 19.9857 21 20.5078 21Z" fill="white"/>
<path d="M26.9062 21C27.4284 21 27.9292 20.7926 28.2984 20.4234C28.6676 20.0542 28.875 19.5534 28.875 19.0312C28.875 18.5091 28.6676 18.0083 28.2984 17.6391C27.9292 17.2699 27.4284 17.0625 26.9062 17.0625C26.3841 17.0625 25.8833 17.2699 25.5141 17.6391C25.1449 18.0083 24.9375 18.5091 24.9375 19.0312C24.9375 19.5534 25.1449 20.0542 25.5141 20.4234C25.8833 20.7926 26.3841 21 26.9062 21Z" fill="white"/>
</svg>
