<svg width="33" height="33" viewBox="0 0 33 33" fill="none" xmlns="http://www.w3.org/2000/svg">
<g clip-path="url(#clip0_159_2143)">
<path d="M20.7087 6.98263C22.0168 7.23785 23.219 7.87762 24.1615 8.82004C25.1039 9.76247 25.7437 10.9647 25.9989 12.2728M20.7087 1.62549C23.4265 1.92741 25.9608 3.14447 27.8956 5.07684C29.8304 7.0092 31.0507 9.54202 31.356 12.2594M30.0167 22.9469V26.9648C30.0182 27.3378 29.9418 27.707 29.7924 28.0487C29.643 28.3905 29.4238 28.6973 29.149 28.9494C28.8741 29.2016 28.5496 29.3935 28.1963 29.513C27.843 29.6325 27.4686 29.6769 27.0971 29.6433C22.9759 29.1955 19.0172 27.7873 15.5391 25.5317C12.3031 23.4755 9.55959 20.732 7.50334 17.496C5.23992 14.0021 3.83134 10.0241 3.39173 5.88442C3.35826 5.51406 3.40228 5.14079 3.52097 4.78838C3.63967 4.43596 3.83044 4.11213 4.08115 3.83748C4.33186 3.56284 4.637 3.3434 4.97716 3.19315C5.31732 3.0429 5.68504 2.96512 6.05691 2.96477H10.0748C10.7247 2.95838 11.3548 3.18854 11.8477 3.61236C12.3405 4.03618 12.6624 4.62475 12.7533 5.26835C12.9229 6.55415 13.2374 7.81664 13.6908 9.03174C13.871 9.5111 13.91 10.0321 13.8032 10.5329C13.6964 11.0338 13.4482 11.4935 13.0882 11.8576L11.3873 13.5585C13.2938 16.9115 16.07 19.6877 19.423 21.5942L21.1239 19.8933C21.488 19.5333 21.9477 19.2851 22.4486 19.1783C22.9494 19.0715 23.4704 19.1105 23.9498 19.2907C25.1649 19.7441 26.4274 20.0586 27.7132 20.2282C28.3637 20.3199 28.9579 20.6476 29.3826 21.1489C29.8074 21.6502 30.033 22.2901 30.0167 22.9469Z" stroke="white" stroke-width="2.5" stroke-linecap="round" stroke-linejoin="round"/>
</g>
<defs>
<clipPath id="clip0_159_2143">
<rect width="32.1429" height="32.1429" fill="white" transform="translate(0.552734 0.286133)"/>
</clipPath>
</defs>
</svg>
