<svg width="36" height="36" viewBox="0 0 36 36" fill="none" xmlns="http://www.w3.org/2000/svg">
<path d="M18 0C10.4977 0 4.5 5.99766 4.5 13.5C4.5 16.0945 5.27344 18.0984 6.61641 20.1305L16.5797 35.2477C16.882 35.7047 17.4023 36 18 36C18.5977 36 19.125 35.6977 19.4203 35.2477L29.3836 20.1305C30.7266 18.0984 31.5 16.0945 31.5 13.5C31.5 5.99766 25.5023 0 18 0ZM18 20.9953C13.8586 20.9953 10.4977 17.6344 10.4977 13.4859C10.4977 9.3375 13.8586 5.97656 18 5.97656C22.1414 5.97656 25.5023 9.3375 25.5023 13.4859C25.5023 17.6344 22.1414 20.9953 18 20.9953ZM18 9C15.5109 9 13.5 11.0109 13.5 13.5C13.5 15.9891 15.5109 18 18 18C20.4891 18 22.5 15.9891 22.5 13.5C22.5 11.0109 20.4891 9 18 9Z" fill="#0068B4"/>
</svg>
