<svg width="12" height="16" viewBox="0 0 12 16" fill="none" xmlns="http://www.w3.org/2000/svg">
<path d="M5.45312 14.6665C1.46094 8.92432 0.75 8.32275 0.75 6.18994C0.75 3.2915 3.07422 0.939941 6 0.939941C8.89844 0.939941 11.25 3.2915 11.25 6.18994C11.25 8.32275 10.5117 8.92432 6.51953 14.6665C6.27344 15.0493 5.69922 15.0493 5.45312 14.6665ZM6 8.37744C7.20312 8.37744 8.1875 7.42041 8.1875 6.18994C8.1875 4.98682 7.20312 4.00244 6 4.00244C4.76953 4.00244 3.8125 4.98682 3.8125 6.18994C3.8125 7.42041 4.76953 8.37744 6 8.37744Z" fill="#FFC20E"/>
</svg>
