<svg width="14" height="15" viewBox="0 0 14 15" fill="none" xmlns="http://www.w3.org/2000/svg">
<path d="M13.1299 6.49219H13.1025C11.8447 6.49219 10.6963 6.10938 9.7666 5.42578V10.3203C9.7666 12.7812 7.77051 14.75 5.30957 14.75C2.84863 14.75 0.879883 12.7812 0.879883 10.3203C0.879883 7.85938 2.84863 5.86328 5.30957 5.86328C5.52832 5.86328 5.71973 5.89062 5.93848 5.91797V8.37891C5.71973 8.29688 5.52832 8.26953 5.30957 8.26953C4.18848 8.26953 3.25879 9.19922 3.25879 10.3203C3.25879 11.4414 4.18848 12.3711 5.30957 12.3711C6.43066 12.3711 7.36035 11.4414 7.36035 10.3203V0.75H9.7666C9.7666 0.777344 9.7666 0.777344 9.7666 0.804688C9.7666 0.996094 9.7666 1.1875 9.82129 1.37891C9.98535 2.28125 10.5322 3.07422 11.2979 3.56641C11.8174 3.92188 12.4463 4.11328 13.1025 4.11328C13.1025 4.11328 13.1025 4.11328 13.1299 4.11328V6.49219Z" fill="#0068B4"/>
</svg>
