<svg width="16" height="11" viewBox="0 0 16 11" fill="none" xmlns="http://www.w3.org/2000/svg">
<path d="M15.1416 2.16797C15.4697 3.31641 15.4697 5.77734 15.4697 5.77734C15.4697 5.77734 15.4697 8.21094 15.1416 9.38672C14.9775 10.043 14.458 10.5352 13.8291 10.6992C12.6533 11 8.00488 11 8.00488 11C8.00488 11 3.3291 11 2.15332 10.6992C1.52441 10.5352 1.00488 10.043 0.84082 9.38672C0.512695 8.21094 0.512695 5.77734 0.512695 5.77734C0.512695 5.77734 0.512695 3.31641 0.84082 2.16797C1.00488 1.51172 1.52441 0.992188 2.15332 0.828125C3.3291 0.5 8.00488 0.5 8.00488 0.5C8.00488 0.5 12.6533 0.5 13.8291 0.828125C14.458 0.992188 14.9775 1.51172 15.1416 2.16797ZM6.47363 7.99219L10.3564 5.77734L6.47363 3.5625V7.99219Z" fill="#0068B4"/>
</svg>
